<?xml version="1.0" standalone="no"?>
<!DOCTYPE svg PUBLIC "-//W3C//DTD SVG 20010904//EN"
 "http://www.w3.org/TR/2001/REC-SVG-20010904/DTD/svg10.dtd">
<svg version="1.0" xmlns="http://www.w3.org/2000/svg"
 width="700.000000pt" height="700.000000pt" viewBox="0 0 700.000000 700.000000"
 preserveAspectRatio="xMidYMid meet">
<metadata>
Created by potrace 1.11, written by Peter Selinger 2001-2013
</metadata>
<g transform="translate(0.000000,700.000000) scale(0.100000,-0.100000)"
fill="#000000" stroke="none">
<path d="M460 3500 l0 -3040 3040 0 3040 0 0 3040 0 3040 -3040 0 -3040 0 0
-3040z m3310 1246 c119 -24 245 -68 337 -118 100 -55 234 -185 292 -285 152
-258 140 -631 -27 -854 -111 -150 -268 -250 -472 -303 -146 -38 -239 -46 -567
-46 l-303 0 0 -445 0 -445 -270 0 -270 0 0 1261 0 1261 598 -5 c503 -4 610 -7
682 -21z"/>
<path d="M3030 3950 l0 -400 259 0 c143 0 295 5 338 11 211 29 334 163 334
364 1 134 -37 233 -118 312 -104 100 -163 113 -527 113 l-286 0 0 -400z"/>
</g>
</svg>
