<?xml version="1.0" standalone="no"?>
<!DOCTYPE svg PUBLIC "-//W3C//DTD SVG 20010904//EN"
 "http://www.w3.org/TR/2001/REC-SVG-20010904/DTD/svg10.dtd">
<svg version="1.0" xmlns="http://www.w3.org/2000/svg"
 width="900.000000pt" height="900.000000pt" viewBox="0 0 900.000000 900.000000"
 preserveAspectRatio="xMidYMid meet">
<metadata>
Created by potrace 1.11, written by Peter Selinger 2001-2013
</metadata>
<g transform="translate(0.000000,900.000000) scale(0.100000,-0.100000)"
fill="#000000" stroke="none">
<path d="M4410 8993 c-31 -9 -69 -30 -225 -119 -88 -50 -178 -102 -200 -114
-22 -13 -53 -31 -70 -41 -27 -16 -77 -44 -130 -73 -11 -6 -36 -22 -55 -36 -19
-14 -35 -23 -35 -20 0 4 -171 -93 -237 -136 -21 -13 -39 -24 -41 -24 -2 0 -42
-22 -88 -49 -46 -26 -159 -91 -251 -144 -92 -53 -182 -106 -200 -117 -18 -11
-41 -23 -50 -26 -10 -4 -18 -10 -18 -15 0 -5 -5 -9 -10 -9 -6 0 -35 -15 -66
-32 -31 -18 -72 -42 -92 -54 -21 -11 -215 -123 -432 -249 -217 -125 -408 -236
-425 -245 -84 -47 -373 -215 -395 -229 -14 -9 -34 -21 -45 -26 -59 -33 -421
-240 -425 -245 -3 -3 -18 -12 -35 -20 -16 -8 -32 -17 -35 -20 -6 -6 -47 -29
-111 -62 -64 -34 -135 -110 -158 -171 -20 -52 -20 -71 -20 -2197 0 -2122 0
-2146 20 -2197 28 -73 89 -134 194 -194 50 -28 108 -61 130 -74 87 -49 171
-98 200 -116 17 -10 37 -22 45 -26 8 -4 47 -26 85 -48 39 -23 90 -53 115 -67
75 -42 174 -100 200 -116 14 -9 27 -17 30 -17 11 -2 120 -68 126 -76 3 -5 10
-7 15 -4 5 4 9 1 9 -4 0 -6 5 -11 10 -11 6 0 27 -11 48 -23 33 -21 79 -48 162
-94 14 -8 39 -23 55 -33 17 -11 37 -23 45 -27 8 -4 38 -20 65 -36 62 -37 107
-63 165 -95 25 -13 53 -31 63 -40 9 -8 17 -11 17 -7 0 4 8 1 17 -7 10 -8 63
-41 118 -72 55 -31 107 -61 115 -66 39 -24 450 -260 490 -281 25 -13 47 -27
50 -30 9 -10 292 -169 301 -169 5 0 9 -4 9 -10 0 -5 4 -10 9 -10 9 0 97 -49
161 -89 14 -8 27 -16 30 -16 3 0 16 -8 30 -17 46 -30 115 -69 133 -75 9 -3 17
-9 17 -14 0 -5 5 -9 10 -9 6 0 79 -40 163 -89 84 -49 169 -98 190 -110 20 -12
54 -31 75 -43 148 -85 240 -93 357 -28 57 31 222 125 245 139 36 23 235 136
245 140 5 2 12 7 15 10 3 3 25 17 50 30 25 14 48 29 51 34 3 5 10 9 15 9 9 0
123 64 186 104 21 13 39 24 41 24 3 0 56 30 118 66 63 37 133 77 156 90 23 13
92 53 153 89 61 36 113 65 116 65 3 0 12 7 21 15 8 8 19 13 24 10 5 -4 9 -2 9
4 0 6 11 13 25 17 14 3 25 9 25 13 0 3 21 17 48 31 26 13 70 39 99 57 29 18
54 33 56 33 3 0 44 24 93 53 49 29 96 57 104 61 21 10 64 35 140 79 36 21 72
42 80 46 8 5 46 28 83 50 38 23 70 41 73 41 3 0 50 27 106 61 56 33 122 72
147 85 25 14 60 33 76 43 17 10 46 27 66 38 118 67 205 118 209 123 3 3 21 14
40 24 19 9 53 28 75 41 22 13 47 27 55 31 8 4 43 25 78 46 34 21 62 34 62 30
0 -4 4 -2 8 4 7 11 205 128 310 184 26 14 49 28 52 31 3 3 20 14 39 24 19 9
43 26 54 36 12 10 24 19 28 19 14 0 69 98 81 146 10 40 13 471 12 2160 -1
1160 -4 2125 -7 2144 -17 100 -70 166 -189 235 -46 26 -100 58 -120 71 -21 13
-39 24 -42 24 -2 0 -66 36 -142 81 -77 44 -157 91 -179 104 -108 61 -106 59
-258 148 -18 11 -111 64 -207 120 -96 55 -255 147 -353 204 -98 57 -183 103
-188 103 -5 0 -9 4 -9 9 0 5 -8 11 -17 14 -10 4 -38 18 -63 33 -25 15 -60 35
-77 45 -54 31 -94 54 -186 108 -49 28 -93 51 -98 51 -5 0 -9 4 -9 9 0 5 -8 11
-17 14 -19 6 -93 48 -161 91 -23 14 -44 26 -47 26 -3 0 -30 16 -60 35 -30 19
-55 32 -55 29 0 -2 -6 0 -12 6 -14 11 -294 176 -338 198 -14 6 -41 22 -61 35
-39 23 -298 173 -377 218 -26 15 -63 36 -82 47 -36 22 -84 50 -180 103 -30 17
-66 38 -80 47 -14 9 -34 22 -45 28 -11 6 -50 27 -88 48 -37 20 -77 40 -90 43
-29 8 -138 12 -157 6z m-1505 -2128 c22 -3 56 -8 75 -10 63 -9 94 -14 160 -30
36 -8 76 -18 90 -21 118 -25 462 -143 595 -204 11 -5 43 -19 70 -31 64 -27
314 -152 380 -189 28 -16 86 -49 129 -73 88 -51 74 -51 166 5 119 71 505 269
535 274 6 1 31 11 55 22 81 36 279 113 305 118 6 1 48 15 95 30 47 15 92 28
100 30 8 1 51 12 95 23 44 12 96 24 115 27 19 2 49 8 65 11 145 29 429 36 565
14 122 -20 292 -85 338 -128 7 -7 17 -13 21 -13 11 0 113 -99 144 -141 48 -64
91 -163 113 -261 2 -10 7 -28 10 -40 12 -45 11 -302 -2 -345 -6 -24 -8 -43 -4
-43 5 0 4 -12 -1 -27 -5 -16 -22 -80 -39 -143 -31 -114 -87 -276 -116 -331 -8
-16 -11 -29 -7 -29 5 0 3 -4 -3 -8 -5 -4 -21 -33 -33 -64 -13 -32 -27 -58 -32
-58 -5 0 -9 -5 -9 -11 0 -28 -211 -399 -232 -407 -4 -2 -8 -10 -8 -17 0 -7 -3
-15 -7 -17 -9 -4 -53 -65 -53 -73 0 -3 -5 -11 -11 -18 -26 -31 -119 -161 -119
-168 0 -6 109 -164 148 -214 22 -29 110 -167 173 -273 46 -77 169 -316 169
-327 0 -2 11 -28 25 -57 37 -78 99 -253 110 -308 2 -8 4 -15 5 -15 1 0 3 -8 5
-19 2 -10 8 -39 14 -65 30 -130 35 -172 35 -306 0 -66 -3 -138 -7 -160 -4 -22
-10 -52 -12 -66 -3 -14 -12 -42 -20 -62 -8 -20 -15 -40 -16 -44 -3 -39 -78
-153 -143 -219 -64 -65 -209 -155 -271 -169 -5 -1 -17 -5 -25 -8 -146 -54
-444 -62 -700 -17 -51 9 -69 12 -132 24 -13 3 -38 9 -56 15 -18 5 -33 10 -35
10 -21 -2 -357 105 -399 127 -16 8 -28 12 -28 9 0 -4 -12 1 -27 9 -16 8 -64
29 -108 46 -91 36 -449 213 -512 253 -24 15 -45 27 -48 27 -2 0 -27 14 -55 31
-58 36 -61 35 -168 -28 -90 -54 -388 -207 -482 -248 -196 -85 -241 -102 -405
-157 -122 -40 -282 -84 -375 -103 -19 -4 -102 -19 -115 -21 -5 -1 -12 -3 -15
-4 -20 -8 -299 -26 -320 -21 -3 1 -41 4 -85 6 -44 3 -91 7 -105 10 -14 2 -38
7 -55 11 -179 36 -342 132 -450 264 -22 28 -95 167 -99 190 -1 8 -5 24 -9 35
-6 20 -12 47 -23 113 -25 151 1 378 69 597 17 55 31 102 32 105 2 15 40 107
48 118 5 6 7 12 4 12 -3 0 10 31 29 70 19 38 35 73 35 77 3 14 101 196 156
287 29 49 53 91 53 93 0 2 5 9 11 16 5 7 29 41 52 77 22 36 44 67 47 70 3 3
14 19 24 35 10 17 43 63 73 102 40 54 51 76 44 85 -34 41 -91 118 -91 123 0 6
-11 20 -37 50 -7 7 -13 18 -13 24 0 6 -4 11 -9 11 -5 0 -14 13 -21 29 -6 16
-19 37 -28 47 -16 18 -83 128 -166 273 -117 204 -249 530 -280 691 -2 14 -7
32 -10 40 -2 8 -7 33 -10 55 -3 22 -8 54 -12 70 -8 40 -9 250 -1 300 9 59 16
92 26 117 5 13 9 25 9 28 3 27 48 123 78 168 115 170 311 278 559 308 28 4 51
7 53 9 5 4 309 -4 347 -10z"/>
<path d="M2628 6615 c-2 -2 -33 -6 -70 -9 -37 -4 -81 -11 -98 -16 -17 -5 -34
-9 -38 -9 -55 -6 -158 -64 -214 -122 -90 -92 -118 -188 -113 -379 4 -140 7
-167 30 -260 75 -296 260 -661 522 -1032 l40 -57 34 37 c19 21 57 65 84 97
130 153 420 443 596 596 35 31 80 70 99 87 61 54 84 73 119 100 18 15 43 35
55 45 23 20 57 47 150 119 33 27 66 52 73 58 7 5 15 10 18 10 3 0 15 8 26 19
11 10 45 36 77 57 31 21 59 41 62 44 3 3 38 28 78 54 l74 49 -69 38 c-37 21
-73 39 -80 39 -6 0 -13 4 -15 9 -3 7 -292 151 -305 151 -3 0 -19 7 -36 14
-129 60 -406 158 -478 171 -18 3 -36 8 -41 11 -4 3 -16 7 -26 9 -9 1 -35 8
-57 13 -22 6 -51 13 -65 16 -14 3 -34 7 -45 9 -47 10 -98 18 -142 23 -55 6
-241 12 -245 9z"/>
<path d="M6188 6615 c-2 -2 -37 -5 -78 -9 -41 -3 -86 -8 -100 -11 -14 -3 -39
-8 -57 -11 -18 -3 -76 -16 -130 -30 -123 -31 -128 -32 -128 -34 0 -1 -7 -3
-15 -5 -50 -10 -266 -84 -340 -117 -14 -7 -27 -12 -30 -12 -9 -1 -89 -36 -170
-75 -41 -19 -77 -36 -80 -36 -17 -5 -126 -58 -130 -63 -3 -4 -45 -28 -93 -53
-49 -25 -89 -50 -90 -55 0 -5 24 -25 54 -46 30 -20 59 -41 64 -46 6 -5 24 -17
40 -28 37 -23 231 -167 279 -206 11 -10 26 -21 31 -25 6 -5 33 -26 60 -48 28
-22 55 -43 60 -48 25 -19 57 -46 115 -97 34 -30 83 -73 108 -95 181 -158 454
-433 622 -625 25 -28 57 -65 72 -81 l26 -29 79 117 c43 65 81 120 86 121 4 2
7 10 7 18 0 8 5 14 11 14 5 0 7 5 4 10 -3 6 -2 10 2 10 5 0 23 26 41 58 18 31
42 72 52 90 72 120 239 482 223 482 -3 0 -1 6 4 13 13 16 51 143 57 190 2 20
7 40 10 45 8 13 19 126 20 212 3 150 -48 291 -133 367 -56 50 -169 102 -251
117 -14 2 -36 7 -50 10 -25 6 -247 16 -252 11z"/>
<path d="M4339 5859 c-127 -86 -260 -182 -285 -204 -7 -5 -24 -19 -40 -30 -37
-26 -230 -180 -248 -197 -7 -7 -33 -29 -57 -50 -52 -43 -75 -62 -153 -131
-186 -163 -497 -479 -614 -625 -19 -22 -45 -53 -58 -67 -13 -14 -24 -30 -24
-36 0 -12 156 -195 254 -298 191 -201 496 -491 517 -491 5 0 9 -4 9 -8 0 -4
43 -44 96 -88 96 -79 116 -96 165 -137 14 -12 32 -26 41 -32 9 -5 69 -50 134
-100 65 -49 126 -94 135 -100 9 -5 71 -47 137 -92 67 -46 127 -83 134 -83 7 0
38 18 69 40 32 22 62 40 68 40 6 0 11 4 11 8 0 4 15 16 33 27 27 16 229 160
262 187 6 5 71 56 145 115 74 58 137 109 140 112 3 3 21 19 40 35 127 104 270
237 450 416 173 173 250 257 358 387 l51 61 -46 56 c-25 31 -49 56 -54 56 -5
0 -8 3 -7 8 8 23 -413 452 -622 632 -34 30 -68 60 -74 65 -15 15 -133 113
-185 155 -24 19 -48 40 -55 45 -77 71 -563 415 -585 415 -4 0 -68 -41 -142
-91z m249 -784 c43 -6 192 -66 192 -76 0 -5 5 -9 10 -9 17 0 140 -113 140
-129 0 -5 6 -13 13 -20 20 -16 90 -166 79 -166 -1 0 5 -20 12 -45 25 -83 3
-290 -36 -337 -6 -7 -7 -13 -2 -13 5 0 4 -4 -2 -8 -5 -4 -17 -23 -26 -42 -19
-40 -118 -147 -163 -176 -141 -89 -273 -116 -440 -89 -45 7 -63 14 -149 57
-70 36 -71 37 -141 107 -144 145 -193 355 -131 562 32 109 139 251 222 295 19
10 34 22 34 26 0 5 9 8 20 8 11 0 20 3 20 8 0 10 106 43 154 47 21 2 40 5 42
7 4 5 107 0 152 -7z"/>
<path d="M6270 4304 c0 -5 -19 -30 -43 -55 -23 -25 -69 -77 -102 -115 -79 -91
-439 -451 -540 -539 -44 -39 -82 -72 -85 -75 -17 -17 -145 -125 -200 -169 -36
-28 -83 -66 -104 -84 -22 -18 -49 -39 -62 -47 -12 -8 -48 -35 -80 -60 -68 -52
-96 -72 -222 -158 -51 -35 -90 -67 -86 -73 3 -5 27 -20 52 -33 26 -14 108 -55
182 -93 147 -75 328 -156 347 -156 7 0 13 -4 13 -9 0 -4 8 -8 18 -8 10 0 22
-3 26 -7 4 -5 11 -8 14 -9 4 0 20 -6 35 -12 16 -7 34 -12 42 -12 8 0 16 -4 19
-9 3 -4 20 -12 38 -16 18 -4 35 -9 38 -10 3 -1 12 -4 20 -8 12 -5 66 -21 113
-33 4 -1 8 -2 10 -4 1 -1 9 -3 17 -5 8 -2 35 -8 60 -14 25 -7 56 -14 70 -17
14 -3 42 -9 63 -15 39 -10 49 -12 172 -28 73 -9 311 -7 355 4 14 3 36 7 50 10
35 5 107 31 156 56 141 71 224 238 218 438 -3 90 -10 170 -18 191 -3 8 -7 31
-10 51 -3 20 -10 47 -15 60 -5 13 -9 27 -9 32 -1 15 -55 172 -62 182 -5 6 -9
15 -10 20 -9 41 -150 335 -162 335 -4 0 -8 7 -8 15 0 9 -6 26 -14 38 -8 12
-27 42 -42 67 -16 25 -29 47 -29 50 -1 8 -206 315 -221 329 -2 2 -4 0 -4 -5z"/>
<path d="M2652 4258 c-158 -231 -216 -324 -279 -448 -15 -30 -31 -57 -34 -60
-4 -3 -38 -75 -77 -160 -76 -169 -118 -287 -139 -390 -2 -14 -7 -32 -10 -40
-3 -8 -7 -31 -9 -50 -1 -19 -5 -48 -8 -65 -8 -41 -8 -181 -1 -230 15 -87 56
-178 107 -235 21 -23 86 -74 98 -76 3 0 27 -11 53 -23 27 -13 61 -25 75 -27
15 -3 34 -7 42 -10 67 -25 391 -25 503 1 12 3 33 7 47 9 81 13 400 103 418
118 6 6 12 8 12 5 0 -3 28 6 63 20 34 13 67 26 72 27 28 8 167 67 228 97 31
15 60 28 62 28 3 0 56 26 118 57 61 32 126 64 142 72 17 9 32 18 35 21 3 3 17
12 32 20 23 12 25 16 13 27 -7 8 -16 14 -19 14 -7 0 -237 160 -254 177 -7 7
-17 13 -20 13 -4 0 -18 10 -32 23 -14 12 -43 35 -65 52 -22 16 -44 33 -50 37
-159 127 -208 168 -248 204 -26 24 -50 44 -53 44 -3 0 -15 10 -27 23 -12 12
-57 53 -99 90 -86 76 -374 361 -453 448 -78 87 -127 142 -165 187 -19 23 -38
42 -42 42 -4 0 -20 -19 -36 -42z"/>
</g>
</svg>
