<?xml version="1.0" standalone="no"?>
<!DOCTYPE svg PUBLIC "-//W3C//DTD SVG 20010904//EN"
 "http://www.w3.org/TR/2001/REC-SVG-20010904/DTD/svg10.dtd">
<svg version="1.0" xmlns="http://www.w3.org/2000/svg"
 width="700.000000pt" height="700.000000pt" viewBox="0 0 700.000000 700.000000"
 preserveAspectRatio="xMidYMid meet">
<metadata>
Created by potrace 1.11, written by Peter Selinger 2001-2013
</metadata>
<g transform="translate(0.000000,700.000000) scale(0.100000,-0.100000)"
fill="#000000" stroke="none">
<path d="M0 3500 l0 -3500 3500 0 3500 0 0 3500 0 3500 -3500 0 -3500 0 0
-3500z m6530 0 l0 -3030 -3030 0 -3030 0 0 3030 0 3030 3030 0 3030 0 0 -3030z"/>
<path d="M2490 3505 l0 -1265 270 0 270 0 0 444 0 443 333 6 c355 6 432 14
591 63 270 85 465 276 531 519 22 84 30 265 16 350 -51 300 -234 518 -528 628
-191 72 -248 77 -910 77 l-573 0 0 -1265z m1130 834 c131 -21 232 -90 287
-196 44 -85 56 -141 51 -235 -7 -141 -68 -242 -177 -298 -88 -44 -138 -50
-453 -50 l-298 0 0 395 0 395 263 0 c144 0 291 -5 327 -11z"/>
</g>
</svg>
